<?xml version="1.0" encoding="UTF-8" standalone="no"?>
<svg
   xmlns:dc="http://purl.org/dc/elements/1.1/"
   xmlns:cc="http://creativecommons.org/ns#"
   xmlns:rdf="http://www.w3.org/1999/02/22-rdf-syntax-ns#"
   xmlns:svg="http://www.w3.org/2000/svg"
   xmlns="http://www.w3.org/2000/svg"
   xmlns:sodipodi="http://sodipodi.sourceforge.net/DTD/sodipodi-0.dtd"
   xmlns:inkscape="http://www.inkscape.org/namespaces/inkscape"
   width="9.8316374mm"
   height="7.4080663mm"
   viewBox="0 0 9.8316374 7.4080663"
   version="1.1"
   id="svg8"
   inkscape:version="1.0.2 (e86c870879, 2021-01-15)"
   sodipodi:docname="3.svg">
  <defs
     id="defs2" />
  <sodipodi:namedview
     id="base"
     pagecolor="#ffffff"
     bordercolor="#666666"
     borderopacity="1.0"
     inkscape:pageopacity="0.0"
     inkscape:pageshadow="2"
     inkscape:zoom="11.313708"
     inkscape:cx="29.985972"
     inkscape:cy="11.485085"
     inkscape:document-units="mm"
     inkscape:current-layer="layer1"
     inkscape:document-rotation="0"
     showgrid="false"
     fit-margin-top="1"
     fit-margin-left="1"
     fit-margin-right="1"
     fit-margin-bottom="1"
     inkscape:window-width="1366"
     inkscape:window-height="720"
     inkscape:window-x="0"
     inkscape:window-y="0"
     inkscape:window-maximized="1" />
  <metadata
     id="metadata5">
    <rdf:RDF>
      <cc:Work
         rdf:about="">
        <dc:format>image/svg+xml</dc:format>
        <dc:type
           rdf:resource="http://purl.org/dc/dcmitype/StillImage" />
        <dc:title />
      </cc:Work>
    </rdf:RDF>
  </metadata>
  <g
     inkscape:label="Layer 1"
     inkscape:groupmode="layer"
     id="layer1"
     transform="translate(-73.367794,-58.020285)">
    <text
       xml:space="preserve"
       style="font-style:normal;font-weight:normal;font-size:10.5833px;line-height:125%;font-family:sans-serif;letter-spacing:0px;word-spacing:0px;fill:#000000;fill-opacity:1;stroke:none;stroke-width:0.264583px;stroke-linecap:butt;stroke-linejoin:miter;stroke-opacity:1"
       x="93.244232"
       y="56.966457"
       id="text16"><tspan
         sodipodi:role="line"
         id="tspan14"
         x="93.244232"
         y="56.966457"
         style="stroke-width:0.264583px" /></text>
    <g
       aria-label=""
       id="text20"
       style="font-style:normal;font-variant:normal;font-weight:normal;font-stretch:normal;font-size:10.5833px;line-height:125%;font-family:Bravura;-inkscape-font-specification:'Bravura, Normal';font-variant-ligatures:normal;font-variant-caps:normal;font-variant-numeric:normal;font-variant-east-asian:normal;letter-spacing:0px;word-spacing:0px;fill:#000000;fill-opacity:1;stroke:none;stroke-width:0.264583px;stroke-linecap:butt;stroke-linejoin:miter;stroke-opacity:1">
      <path
         d="m 76.410371,59.083784 c -0.01058,0 -0.02117,0 -0.04233,0 l -0.07408,-0.01058 c -0.01058,0 -0.03175,0 -0.04233,0 -0.910164,0 -1.820327,0.603248 -1.820327,1.164163 0,0.349249 0.201082,0.814914 0.857247,0.857247 h 0.05292 c 0.465666,0 0.698498,-0.338665 0.698498,-0.687914 v -0.08467 c -0.03175,-0.391582 -0.296332,-0.412748 -0.349249,-0.433915 -0.05292,-0.02117 -0.211666,0 -0.211666,-0.148166 v -0.04233 c 0.02117,-0.179916 0.349249,-0.264583 0.444499,-0.264583 0.89958,0 0.984247,0.560915 0.984247,0.814914 v 0.07408 c 0,0.783165 -0.624415,1.09008 -1.291163,1.12183 -0.105833,0.01058 -0.253999,0.0635 -0.253999,0.179916 0,0.127 0.179916,0.127 0.264583,0.127 1.217079,0 1.312329,0.825497 1.312329,0.96308 0,1.12183 -0.571498,1.24883 -0.804331,1.24883 -0.04233,0 -0.08467,-0.01058 -0.09525,-0.01058 -0.08467,-0.01058 -0.285749,-0.01058 -0.296332,-0.169333 v -0.05292 c 0,-0.232833 0.232832,-0.391582 0.243416,-0.698498 0,-0.444498 -0.306916,-0.761997 -0.761998,-0.761997 -0.04233,0 -0.07408,0 -0.116416,0.01058 -0.179916,0.03175 -0.380999,0.137583 -0.507998,0.275166 -0.179917,0.158749 -0.232833,0.412748 -0.232833,0.645581 0.02117,0.825497 0.772581,1.142996 1.809744,1.164163 h 0.09525 c 1.047747,0 2.127243,-0.539748 2.127243,-1.471079 v -0.07408 c -0.02117,-0.306916 -0.09525,-0.507998 -0.296332,-0.740831 -0.0635,-0.08467 -0.148167,-0.158749 -0.253999,-0.222249 l -0.22225,-0.127 -0.349249,-0.09525 c -0.05292,-0.01058 -0.08467,-0.01058 -0.105833,-0.05292 -0.01058,-0.02117 -0.01058,-0.03175 -0.01058,-0.05292 0,-0.04233 0.01058,-0.08467 0.04233,-0.09525 0.116417,-0.03175 0.232833,-0.04233 0.328083,-0.09525 0.423331,-0.201082 0.645581,-0.476248 0.645581,-0.96308 0,-0.973664 -1.322913,-1.259413 -1.767411,-1.291163 z"
         style="font-style:normal;font-variant:normal;font-weight:normal;font-stretch:normal;font-size:10.5833px;font-family:Bravura;-inkscape-font-specification:'Bravura, Normal';font-variant-ligatures:normal;font-variant-caps:normal;font-variant-numeric:normal;font-variant-east-asian:normal;stroke-width:0.264583px"
         id="path1443" />
    </g>
  </g>
</svg>
