<?xml version="1.0" encoding="UTF-8" standalone="no"?>
<svg
   xmlns:dc="http://purl.org/dc/elements/1.1/"
   xmlns:cc="http://creativecommons.org/ns#"
   xmlns:rdf="http://www.w3.org/1999/02/22-rdf-syntax-ns#"
   xmlns:svg="http://www.w3.org/2000/svg"
   xmlns="http://www.w3.org/2000/svg"
   xmlns:sodipodi="http://sodipodi.sourceforge.net/DTD/sodipodi-0.dtd"
   xmlns:inkscape="http://www.inkscape.org/namespaces/inkscape"
   width="9.1331396mm"
   height="12.699713mm"
   viewBox="0 0 9.1331395 12.699713"
   version="1.1"
   id="svg8"
   sodipodi:docname="erest.svg"
   inkscape:version="1.0.2 (e86c870879, 2021-01-15)">
  <defs
     id="defs2" />
  <sodipodi:namedview
     id="base"
     pagecolor="#ffffff"
     bordercolor="#666666"
     borderopacity="1.0"
     inkscape:pageopacity="0.0"
     inkscape:pageshadow="2"
     inkscape:zoom="2.8"
     inkscape:cx="-139.21179"
     inkscape:cy="37.495735"
     inkscape:document-units="mm"
     inkscape:current-layer="layer1"
     inkscape:document-rotation="0"
     showgrid="false"
     fit-margin-top="1"
     fit-margin-left="1"
     fit-margin-right="1"
     fit-margin-bottom="1"
     inkscape:window-width="1920"
     inkscape:window-height="1024"
     inkscape:window-x="1920"
     inkscape:window-y="0"
     inkscape:window-maximized="1" />
  <metadata
     id="metadata5">
    <rdf:RDF>
      <cc:Work
         rdf:about="">
        <dc:format>image/svg+xml</dc:format>
        <dc:type
           rdf:resource="http://purl.org/dc/dcmitype/StillImage" />
        <dc:title></dc:title>
      </cc:Work>
    </rdf:RDF>
  </metadata>
  <g
     inkscape:label="Layer 1"
     inkscape:groupmode="layer"
     id="layer1"
     transform="translate(-138.15472,-63.760878)">
    <text
       xml:space="preserve"
       style="font-style:normal;font-weight:normal;font-size:10.5833px;line-height:125%;font-family:sans-serif;letter-spacing:0px;word-spacing:0px;fill:#000000;fill-opacity:1;stroke:none;stroke-width:0.264583px;stroke-linecap:butt;stroke-linejoin:miter;stroke-opacity:1"
       x="98.283035"
       y="90.848251"
       id="text18"><tspan
         sodipodi:role="line"
         id="tspan16"
         x="98.283035"
         y="90.848251"
         style="stroke-width:0.264583px" /></text>
    <g
       aria-label="î‡•"
       id="text34"
       style="font-style:normal;font-weight:normal;font-size:10.5833px;line-height:125%;font-family:sans-serif;letter-spacing:0px;word-spacing:0px;fill:#000000;fill-opacity:1;stroke:none;stroke-width:0.264583px;stroke-linecap:butt;stroke-linejoin:miter;stroke-opacity:1"
       transform="translate(-8.9092246,-19.210649)" />
    <g
       aria-label="ð„¾"
       transform="scale(0.99997306,1.0000269)"
       id="text846-0"
       style="font-style:normal;font-variant:normal;font-weight:normal;font-stretch:normal;font-size:10.5833px;line-height:125%;font-family:Bravura;-inkscape-font-specification:'Bravura, Normal';font-variant-ligatures:normal;font-variant-caps:normal;font-variant-numeric:normal;font-variant-east-asian:normal;letter-spacing:0px;word-spacing:0px;fill:#000000;fill-opacity:1;stroke:none;stroke-width:0.264582px;stroke-linecap:butt;stroke-linejoin:miter;stroke-opacity:1">
      <path
         d="m 140.57664,70.468076 c 0,-0.391582 -0.3175,-0.70908 -0.70908,-0.70908 -0.39158,0 -0.70908,0.317498 -0.70908,0.70908 0,0.222249 0.127,0.412748 0.28575,0.539747 0.16933,0.116416 0.37041,0.179916 0.57149,0.179916 0.14817,0 0.29634,-0.03175 0.41275,-0.07408 0.14817,-0.04233 0.24342,-0.08467 0.381,-0.158749 0.0212,-0.01058 0.0423,-0.01058 0.0529,-0.01058 0.0423,0 0.0529,0.04233 0.0529,0.09525 0,0.03175 0,0.07408 -0.0106,0.116416 -0.0317,0.158749 -0.79375,2.264822 -0.98425,2.963319 0,0.126999 0.24342,0.137582 0.30692,0.137582 0.11642,0 0.26458,-0.02117 0.37041,-0.105832 0.0317,-0.02117 1.06892,-3.735899 1.06892,-3.735899 0.0423,-0.190499 0.0952,-0.359831 0.10583,-0.412748 0,-0.105833 -0.10583,-0.158749 -0.127,-0.169332 -0.0212,0 -0.0529,0 -0.11642,0.04233 -0.0741,0.0635 -0.60324,0.698496 -0.95249,0.698496 z"
         style="stroke-width:0.264582px"
         id="path1003" />
    </g>
  </g>
</svg>
