<?xml version="1.0" encoding="UTF-8" standalone="no"?>
<svg
   xmlns:dc="http://purl.org/dc/elements/1.1/"
   xmlns:cc="http://creativecommons.org/ns#"
   xmlns:rdf="http://www.w3.org/1999/02/22-rdf-syntax-ns#"
   xmlns:svg="http://www.w3.org/2000/svg"
   xmlns="http://www.w3.org/2000/svg"
   xmlns:sodipodi="http://sodipodi.sourceforge.net/DTD/sodipodi-0.dtd"
   xmlns:inkscape="http://www.inkscape.org/namespaces/inkscape"
   width="150"
   height="150"
   viewBox="0 0 39.687499 39.687499"
   version="1.1"
   id="svg8"
   inkscape:version="1.0.2 (e86c870879, 2021-01-15)"
   sodipodi:docname="mclick.svg"
   inkscape:export-filename="/home/nps/src/mclick/static/mclick.png"
   inkscape:export-xdpi="131.63"
   inkscape:export-ydpi="131.63">
  <defs
     id="defs2" />
  <sodipodi:namedview
     id="base"
     pagecolor="#ffffff"
     bordercolor="#666666"
     borderopacity="1.0"
     inkscape:pageopacity="0.0"
     inkscape:pageshadow="2"
     inkscape:zoom="2.8"
     inkscape:cx="83.774245"
     inkscape:cy="99.271195"
     inkscape:document-units="mm"
     inkscape:current-layer="layer1"
     inkscape:document-rotation="0"
     showgrid="false"
     inkscape:window-width="1920"
     inkscape:window-height="1024"
     inkscape:window-x="1920"
     inkscape:window-y="0"
     inkscape:window-maximized="1"
     fit-margin-top="0"
     fit-margin-left="0"
     fit-margin-right="0"
     fit-margin-bottom="0"
     units="px" />
  <metadata
     id="metadata5">
    <rdf:RDF>
      <cc:Work
         rdf:about="">
        <dc:format>image/svg+xml</dc:format>
        <dc:type
           rdf:resource="http://purl.org/dc/dcmitype/StillImage" />
        <dc:title />
      </cc:Work>
    </rdf:RDF>
  </metadata>
  <g
     inkscape:label="Layer 1"
     inkscape:groupmode="layer"
     id="layer1">
    <path
       id="rect1022"
       style="fill:#000000;fill-opacity:1;stroke:#ffffff;stroke-width:0.999999;stroke-miterlimit:4;stroke-dasharray:none;stroke-opacity:0.94313759"
       d="M 74.935547 1.515625 A 73.485365 73.485365 0 0 0 1.515625 74.96875 A 73.485365 73.485365 0 0 0 74.966797 148.48438 A 73.485365 73.485365 0 0 0 148.48438 75.033203 L 148.48438 75.029297 A 73.485365 73.485365 0 0 0 75.027344 1.515625 A 73.485365 73.485365 0 0 0 74.935547 1.515625 z M 74.505859 5.4882812 A 69.513179 69.513179 0 0 1 74.507812 5.4882812 A 69.513179 69.513179 0 0 1 75.025391 5.4882812 L 75.027344 5.4882812 A 69.513179 69.513179 0 0 1 144.51367 75.027344 L 144.51367 75.029297 A 69.513179 69.513179 0 0 1 89.103516 143.06445 A 14.175259 14.175259 0 0 0 79.292969 131.03516 L 83.388672 102.59766 L 87.691406 103.2168 L 90.353516 84.732422 L 86.048828 84.113281 L 93.751953 30.625 L 88.232422 29.830078 L 80.53125 83.318359 L 76.226562 82.699219 L 73.566406 101.18164 L 77.869141 101.80078 L 73.748047 130.42773 A 14.175259 14.175259 0 0 0 60.90625 143.06641 A 69.513179 69.513179 0 0 1 5.4863281 74.972656 A 69.513179 69.513179 0 0 1 74.505859 5.4882812 z "
       transform="scale(0.26458333)" />
    <path
       id="path954"
       style="fill:#000000;fill-opacity:1;stroke:#ffffff;stroke-width:0.999999;stroke-miterlimit:4;stroke-dasharray:none;stroke-opacity:0.94313759"
       d="M 74.84375 26.160156 A 9.4501733 9.4501733 0 0 0 65.498047 35.607422 A 9.4501733 9.4501733 0 0 0 74.945312 45.060547 A 9.4501733 9.4501733 0 0 0 84.398438 35.615234 L 84.398438 35.613281 A 9.4501733 9.4501733 0 0 0 74.953125 26.160156 A 9.4501733 9.4501733 0 0 0 74.84375 26.160156 z M 47.324219 37.787109 A 9.4501733 9.4501733 0 0 0 37.869141 47.234375 A 9.4501733 9.4501733 0 0 0 47.316406 56.6875 A 9.4501733 9.4501733 0 0 0 56.769531 47.242188 A 9.4501733 9.4501733 0 0 0 47.324219 37.787109 z M 102.9375 37.847656 A 9.4501733 9.4501733 0 0 0 93.59375 47.294922 A 9.4501733 9.4501733 0 0 0 103.03906 56.748047 A 9.4501733 9.4501733 0 0 0 112.49414 47.302734 A 9.4501733 9.4501733 0 0 0 103.04688 37.847656 A 9.4501733 9.4501733 0 0 0 102.9375 37.847656 z M 35.457031 65.5 A 9.4501733 9.4501733 0 0 0 26.113281 74.945312 A 9.4501733 9.4501733 0 0 0 35.558594 84.400391 A 9.4501733 9.4501733 0 0 0 45.013672 74.953125 A 9.4501733 9.4501733 0 0 0 35.566406 65.5 A 9.4501733 9.4501733 0 0 0 35.457031 65.5 z M 114.33203 65.533203 A 9.4501733 9.4501733 0 0 0 104.98633 74.980469 A 9.4501733 9.4501733 0 0 0 114.43359 84.433594 A 9.4501733 9.4501733 0 0 0 123.88672 74.988281 L 123.88672 74.986328 A 9.4501733 9.4501733 0 0 0 114.44141 65.533203 A 9.4501733 9.4501733 0 0 0 114.33203 65.533203 z "
       transform="scale(0.26458333)" />
  </g>
</svg>
