<?xml version="1.0" encoding="UTF-8" standalone="no"?>
<svg
   xmlns:dc="http://purl.org/dc/elements/1.1/"
   xmlns:cc="http://creativecommons.org/ns#"
   xmlns:rdf="http://www.w3.org/1999/02/22-rdf-syntax-ns#"
   xmlns:svg="http://www.w3.org/2000/svg"
   xmlns="http://www.w3.org/2000/svg"
   xmlns:sodipodi="http://sodipodi.sourceforge.net/DTD/sodipodi-0.dtd"
   xmlns:inkscape="http://www.inkscape.org/namespaces/inkscape"
   width="150"
   height="150"
   viewBox="0 0 39.687499 39.687499"
   version="1.1"
   id="svg8"
   inkscape:version="1.0.2 (e86c870879, 2021-01-15)"
   sodipodi:docname="mclick.svg"
   inkscape:export-filename="/home/nps/src/mclick/static/mclick.png"
   inkscape:export-xdpi="131.63"
   inkscape:export-ydpi="131.63">
  <defs
     id="defs2" />
  <sodipodi:namedview
     id="base"
     pagecolor="#ffffff"
     bordercolor="#666666"
     borderopacity="1.0"
     inkscape:pageopacity="0.0"
     inkscape:pageshadow="2"
     inkscape:zoom="1.979899"
     inkscape:cx="-31.535325"
     inkscape:cy="148.37484"
     inkscape:document-units="mm"
     inkscape:current-layer="layer1"
     inkscape:document-rotation="0"
     showgrid="false"
     inkscape:window-width="1920"
     inkscape:window-height="1024"
     inkscape:window-x="1920"
     inkscape:window-y="0"
     inkscape:window-maximized="1"
     fit-margin-top="0"
     fit-margin-left="0"
     fit-margin-right="0"
     fit-margin-bottom="0"
     units="px" />
  <metadata
     id="metadata5">
    <rdf:RDF>
      <cc:Work
         rdf:about="">
        <dc:format>image/svg+xml</dc:format>
        <dc:type
           rdf:resource="http://purl.org/dc/dcmitype/StillImage" />
        <dc:title></dc:title>
      </cc:Work>
    </rdf:RDF>
  </metadata>
  <g
     inkscape:label="Layer 1"
     inkscape:groupmode="layer"
     id="layer1">
    <g
       id="g1040"
       transform="translate(60.744364,-32.338306)"
       style="fill:#ffffff;fill-opacity:1;stroke:#000000;stroke-width:0.264583;stroke-miterlimit:4;stroke-dasharray:none;stroke-opacity:1">
      <g
         id="g1028"
         transform="rotate(8.1935504,-53.391299,38.689645)"
         inkscape:transform-center-x="-2.256842"
         inkscape:transform-center-y="-13.930066"
         style="fill:#ffffff;fill-opacity:1;stroke:#000000;stroke-width:0.264583;stroke-miterlimit:4;stroke-dasharray:none;stroke-opacity:1">
        <rect
           style="fill:#ffffff;fill-opacity:1;stroke:#000000;stroke-width:0.264583;stroke-miterlimit:4;stroke-dasharray:none;stroke-opacity:1"
           id="rect1022"
           width="1.4753391"
           height="29.734377"
           x="-37.343128"
           y="37.93589" />
        <rect
           style="fill:#ffffff;fill-opacity:1;stroke:#000000;stroke-width:0.264583;stroke-miterlimit:4;stroke-dasharray:none;stroke-opacity:1"
           id="rect1024"
           width="3.7760937"
           height="4.9406753"
           x="-38.493507"
           y="52.234154" />
      </g>
      <path
         id="path920"
         style="fill:#ffffff;fill-opacity:1;stroke:#000000;stroke-width:0.264583;stroke-miterlimit:4;stroke-dasharray:none;stroke-opacity:1"
         d="m -40.917925,32.739057 a 19.443003,19.443003 0 0 0 -19.425688,19.434989 19.443003,19.443003 0 0 0 19.434472,19.451008 19.443003,19.443003 0 0 0 19.451526,-19.434471 v -10e-4 a 19.443003,19.443003 0 0 0 -19.435506,-19.450526 19.443003,19.443003 0 0 0 -0.0248,0 z m 0.02429,1.051099 a 18.392029,18.392029 0 0 1 18.384922,18.398877 v 10e-4 a 18.392029,18.392029 0 0 1 -14.660604,18.001001 3.7505372,3.7505372 0 0 0 -3.693315,-3.358452 3.7505372,3.7505372 0 0 0 -3.766695,3.358968 18.392029,18.392029 0 0 1 -14.663189,-18.016987 18.392029,18.392029 0 0 1 18.398878,-18.384407 z" />
      <g
         id="g1020"
         transform="translate(0.07874023,-0.06485346)"
         style="fill:#ffffff;fill-opacity:1;stroke:#000000;stroke-width:0.264583;stroke-miterlimit:4;stroke-dasharray:none;stroke-opacity:1">
        <circle
           style="fill:#ffffff;fill-opacity:1;stroke:#000000;stroke-width:0.264583;stroke-miterlimit:4;stroke-dasharray:none;stroke-opacity:1"
           id="path954"
           sodipodi:type="arc"
           sodipodi:cx="-51.413754"
           sodipodi:cy="52.233624"
           sodipodi:rx="2.5003583"
           sodipodi:ry="2.5003583"
           sodipodi:start="0.00043633231"
           sodipodi:end="0.00038171223"
           sodipodi:open="true"
           sodipodi:arc-type="arc"
           d="m -48.913395,52.234714 a 2.5003583,2.5003583 0 0 1 -2.501415,2.499268 2.5003583,2.5003583 0 0 1 -2.499302,-2.501381 2.5003583,2.5003583 0 0 1 2.501347,-2.499336 2.5003583,2.5003583 0 0 1 2.49937,2.501313" />
        <circle
           style="fill:#ffffff;fill-opacity:1;stroke:#000000;stroke-width:0.264583;stroke-miterlimit:4;stroke-dasharray:none;stroke-opacity:1"
           id="path954-9"
           sodipodi:type="arc"
           sodipodi:cx="-48.303085"
           sodipodi:cy="44.901478"
           sodipodi:rx="2.5003583"
           sodipodi:ry="2.5003583"
           sodipodi:start="0.00043633231"
           sodipodi:end="0.00038171223"
           sodipodi:open="true"
           sodipodi:arc-type="arc"
           d="m -45.802727,44.902569 a 2.5003583,2.5003583 0 0 1 -2.501415,2.499267 2.5003583,2.5003583 0 0 1 -2.499301,-2.501381 2.5003583,2.5003583 0 0 1 2.501346,-2.499335 2.5003583,2.5003583 0 0 1 2.49937,2.501312" />
        <circle
           style="fill:#ffffff;fill-opacity:1;stroke:#000000;stroke-width:0.264583;stroke-miterlimit:4;stroke-dasharray:none;stroke-opacity:1"
           id="path954-3"
           sodipodi:type="arc"
           sodipodi:cx="-40.992805"
           sodipodi:cy="41.825138"
           sodipodi:rx="2.5003583"
           sodipodi:ry="2.5003583"
           sodipodi:start="0.00043633231"
           sodipodi:end="0.00038171223"
           sodipodi:open="true"
           sodipodi:arc-type="arc"
           d="m -38.492447,41.826229 a 2.5003583,2.5003583 0 0 1 -2.501415,2.499267 2.5003583,2.5003583 0 0 1 -2.499302,-2.501381 2.5003583,2.5003583 0 0 1 2.501347,-2.499335 2.5003583,2.5003583 0 0 1 2.49937,2.501313" />
        <circle
           style="fill:#ffffff;fill-opacity:1;stroke:#000000;stroke-width:0.264583;stroke-miterlimit:4;stroke-dasharray:none;stroke-opacity:1"
           id="path954-6"
           sodipodi:type="arc"
           sodipodi:cx="-33.559528"
           sodipodi:cy="44.917465"
           sodipodi:rx="2.5003583"
           sodipodi:ry="2.5003583"
           sodipodi:start="0.00043633231"
           sodipodi:end="0.00038171223"
           sodipodi:open="true"
           sodipodi:arc-type="arc"
           d="m -31.05917,44.918556 a 2.5003583,2.5003583 0 0 1 -2.501415,2.499267 2.5003583,2.5003583 0 0 1 -2.499301,-2.50138 2.5003583,2.5003583 0 0 1 2.501346,-2.499336 2.5003583,2.5003583 0 0 1 2.49937,2.501313" />
        <circle
           style="fill:#ffffff;fill-opacity:1;stroke:#000000;stroke-width:0.264583;stroke-miterlimit:4;stroke-dasharray:none;stroke-opacity:1"
           id="path954-0"
           sodipodi:type="arc"
           sodipodi:cx="-30.544954"
           sodipodi:cy="52.242519"
           sodipodi:rx="2.5003583"
           sodipodi:ry="2.5003583"
           sodipodi:start="0.00043633231"
           sodipodi:end="0.00038171223"
           sodipodi:open="true"
           sodipodi:arc-type="arc"
           d="m -28.044596,52.24361 a 2.5003583,2.5003583 0 0 1 -2.501415,2.499267 2.5003583,2.5003583 0 0 1 -2.499301,-2.50138 2.5003583,2.5003583 0 0 1 2.501346,-2.499336 2.5003583,2.5003583 0 0 1 2.49937,2.501313" />
      </g>
    </g>
  </g>
</svg>
