<?xml version="1.0" encoding="UTF-8" standalone="no"?>
<svg
   xmlns:dc="http://purl.org/dc/elements/1.1/"
   xmlns:cc="http://creativecommons.org/ns#"
   xmlns:rdf="http://www.w3.org/1999/02/22-rdf-syntax-ns#"
   xmlns:svg="http://www.w3.org/2000/svg"
   xmlns="http://www.w3.org/2000/svg"
   xmlns:sodipodi="http://sodipodi.sourceforge.net/DTD/sodipodi-0.dtd"
   xmlns:inkscape="http://www.inkscape.org/namespaces/inkscape"
   width="150"
   height="150"
   viewBox="0 0 39.687499 39.687499"
   version="1.1"
   id="svg8"
   inkscape:version="1.0.2 (e86c870879, 2021-01-15)"
   sodipodi:docname="mclick.svg"
   inkscape:export-filename="/home/nps/src/mclick/static/mclick.png"
   inkscape:export-xdpi="131.63"
   inkscape:export-ydpi="131.63">
  <defs
     id="defs2" />
  <sodipodi:namedview
     id="base"
     pagecolor="#ffffff"
     bordercolor="#666666"
     borderopacity="1.0"
     inkscape:pageopacity="0.0"
     inkscape:pageshadow="2"
     inkscape:zoom="2.8"
     inkscape:cx="21.06319"
     inkscape:cy="37.366335"
     inkscape:document-units="mm"
     inkscape:current-layer="layer1"
     inkscape:document-rotation="0"
     showgrid="false"
     inkscape:window-width="1366"
     inkscape:window-height="720"
     inkscape:window-x="0"
     inkscape:window-y="0"
     inkscape:window-maximized="1"
     fit-margin-top="0"
     fit-margin-left="0"
     fit-margin-right="0"
     fit-margin-bottom="0"
     units="px" />
  <metadata
     id="metadata5">
    <rdf:RDF>
      <cc:Work
         rdf:about="">
        <dc:format>image/svg+xml</dc:format>
        <dc:type
           rdf:resource="http://purl.org/dc/dcmitype/StillImage" />
        <dc:title />
      </cc:Work>
    </rdf:RDF>
  </metadata>
  <g
     inkscape:label="Layer 1"
     inkscape:groupmode="layer"
     id="layer1">
    <path
       id="rect1022"
       style="fill:#fefefe;fill-opacity:1;stroke:#000000;stroke-width:2.51338586;stroke-miterlimit:4;stroke-dasharray:none;stroke-opacity:0.94313759"
       d="M 74.935547 1.515625 A 73.485365 73.485365 0 0 0 1.515625 74.96875 A 73.485365 73.485365 0 0 0 74.966797 148.48438 A 73.485365 73.485365 0 0 0 148.48438 75.033203 L 148.48438 75.029297 A 73.485365 73.485365 0 0 0 75.027344 1.515625 A 73.485365 73.485365 0 0 0 74.935547 1.515625 z M 74.505859 5.4882812 A 69.513179 69.513179 0 0 1 74.507812 5.4882812 A 69.513179 69.513179 0 0 1 75.025391 5.4882812 L 75.027344 5.4882812 A 69.513179 69.513179 0 0 1 144.51367 75.027344 L 144.51367 75.029297 A 69.513179 69.513179 0 0 1 89.103516 143.06445 A 14.175259 14.175259 0 0 0 79.292969 131.03516 L 83.388672 102.59766 L 87.691406 103.2168 L 90.353516 84.732422 L 86.048828 84.113281 L 93.751953 30.625 L 88.232422 29.830078 L 80.53125 83.318359 L 76.226562 82.699219 L 73.566406 101.18164 L 77.869141 101.80078 L 73.748047 130.42773 A 14.175259 14.175259 0 0 0 60.90625 143.06641 A 69.513179 69.513179 0 0 1 5.4863281 74.972656 A 69.513179 69.513179 0 0 1 74.505859 5.4882812 z "
       transform="scale(0.26458333)" />
    <g
       id="g951"
       style="stroke-width:0.5;stroke-miterlimit:4;stroke-dasharray:none">
      <path
         style="fill:#fdfdfd;fill-opacity:1;stroke:#0b0000;stroke-width:0.5;stroke-miterlimit:4;stroke-dasharray:none;stroke-opacity:0.943138"
         d="m 30.250349,17.338993 a 2.5003583,2.5003583 0 0 0 -2.472716,2.499589 2.5003583,2.5003583 0 0 0 2.499587,2.501139 2.5003583,2.5003583 0 0 0 2.501141,-2.499072 v -5.29e-4 a 2.5003583,2.5003583 0 0 0 -2.499072,-2.501139 2.5003583,2.5003583 0 0 0 -0.02894,0 z"
         id="path870" />
      <path
         style="fill:#fdfdfd;fill-opacity:1;stroke:#0b0000;stroke-width:0.5;stroke-miterlimit:4;stroke-dasharray:none;stroke-opacity:0.943138"
         d="m 9.3813393,17.330208 a 2.5003583,2.5003583 0 0 0 -2.4722005,2.499072 2.5003583,2.5003583 0 0 0 2.4990724,2.501657 2.5003583,2.5003583 0 0 0 2.5016558,-2.49959 2.5003583,2.5003583 0 0 0 -2.4995889,-2.501139 2.5003583,2.5003583 0 0 0 -0.028939,0 z"
         id="path868" />
      <path
         style="fill:#fdfdfd;fill-opacity:1;stroke:#0b0000;stroke-width:0.5;stroke-miterlimit:4;stroke-dasharray:none;stroke-opacity:0.943138"
         d="m 27.235547,10.013859 a 2.5003583,2.5003583 0 0 0 -2.472201,2.499589 2.5003583,2.5003583 0 0 0 2.499072,2.501139 2.5003583,2.5003583 0 0 0 2.501656,-2.499072 2.5003583,2.5003583 0 0 0 -2.499587,-2.501656 2.5003583,2.5003583 0 0 0 -0.02894,0 z"
         id="path866" />
      <path
         style="fill:#fdfdfd;fill-opacity:1;stroke:#0b0000;stroke-width:0.5;stroke-miterlimit:4;stroke-dasharray:none;stroke-opacity:0.943138"
         d="m 12.521199,9.9978391 a 2.5003583,2.5003583 0 0 0 -2.501656,2.4995889 2.5003583,2.5003583 0 0 0 2.499589,2.50114 2.5003583,2.5003583 0 0 0 2.50114,-2.499073 2.5003583,2.5003583 0 0 0 -2.499073,-2.5016559 z"
         id="path864" />
      <path
         style="fill:#fdfdfd;fill-opacity:1;stroke:#0b0000;stroke-width:0.5;stroke-miterlimit:4;stroke-dasharray:none;stroke-opacity:0.943138"
         d="M 19.802409,6.9215412 A 2.5003583,2.5003583 0 0 0 17.329691,9.4211303 2.5003583,2.5003583 0 0 0 19.82928,11.92227 2.5003583,2.5003583 0 0 0 22.33042,9.4231972 V 9.422668 a 2.5003583,2.5003583 0 0 0 -2.499073,-2.5011392 2.5003583,2.5003583 0 0 0 -0.02894,0 z"
         id="path954" />
    </g>
  </g>
</svg>
