<?xml version="1.0" encoding="UTF-8" standalone="no"?>
<svg
   xmlns:dc="http://purl.org/dc/elements/1.1/"
   xmlns:cc="http://creativecommons.org/ns#"
   xmlns:rdf="http://www.w3.org/1999/02/22-rdf-syntax-ns#"
   xmlns:svg="http://www.w3.org/2000/svg"
   xmlns="http://www.w3.org/2000/svg"
   xmlns:sodipodi="http://sodipodi.sourceforge.net/DTD/sodipodi-0.dtd"
   xmlns:inkscape="http://www.inkscape.org/namespaces/inkscape"
   width="9.1331396mm"
   height="12.699713mm"
   viewBox="0 0 9.1331395 12.699713"
   version="1.1"
   id="svg8"
   sodipodi:docname="measure.svg"
   inkscape:version="1.0.2 (e86c870879, 2021-01-15)">
  <defs
     id="defs2" />
  <sodipodi:namedview
     id="base"
     pagecolor="#ffffff"
     bordercolor="#666666"
     borderopacity="1.0"
     inkscape:pageopacity="0.0"
     inkscape:pageshadow="2"
     inkscape:zoom="5.6568542"
     inkscape:cx="-1.7053749"
     inkscape:cy="51.129796"
     inkscape:document-units="mm"
     inkscape:current-layer="layer1"
     inkscape:document-rotation="0"
     showgrid="false"
     fit-margin-top="1"
     fit-margin-left="1"
     fit-margin-right="1"
     fit-margin-bottom="1"
     inkscape:window-width="1920"
     inkscape:window-height="1024"
     inkscape:window-x="1920"
     inkscape:window-y="0"
     inkscape:window-maximized="1" />
  <metadata
     id="metadata5">
    <rdf:RDF>
      <cc:Work
         rdf:about="">
        <dc:format>image/svg+xml</dc:format>
        <dc:type
           rdf:resource="http://purl.org/dc/dcmitype/StillImage" />
        <dc:title />
      </cc:Work>
    </rdf:RDF>
  </metadata>
  <g
     inkscape:label="Layer 1"
     inkscape:groupmode="layer"
     id="layer1"
     transform="translate(-138.15472,-63.760878)">
    <text
       xml:space="preserve"
       style="font-style:normal;font-weight:normal;font-size:10.5833px;line-height:125%;font-family:sans-serif;letter-spacing:0px;word-spacing:0px;fill:#000000;fill-opacity:1;stroke:none;stroke-width:0.264583px;stroke-linecap:butt;stroke-linejoin:miter;stroke-opacity:1"
       x="98.283035"
       y="90.848251"
       id="text18"><tspan
         sodipodi:role="line"
         id="tspan16"
         x="98.283035"
         y="90.848251"
         style="stroke-width:0.264583px" /></text>
    <g
       aria-label=""
       id="text34"
       style="font-style:normal;font-weight:normal;font-size:10.5833px;line-height:125%;font-family:sans-serif;letter-spacing:0px;word-spacing:0px;fill:#000000;fill-opacity:1;stroke:none;stroke-width:0.264583px;stroke-linecap:butt;stroke-linejoin:miter;stroke-opacity:1"
       transform="translate(-8.9092246,-19.210649)" />
    <g
       id="g1888"
       transform="matrix(0.71499144,0,0,0.71499724,39.131109,21.135054)">
      <g
         aria-label=" "
         id="text846"
         style="font-style:normal;font-variant:normal;font-weight:normal;font-stretch:normal;font-size:10.5833px;line-height:125%;font-family:Bravura;-inkscape-font-specification:'Bravura, Normal';font-variant-ligatures:normal;font-variant-caps:normal;font-variant-numeric:normal;font-variant-east-asian:normal;letter-spacing:0px;word-spacing:0px;fill:#000000;fill-opacity:1;stroke:none;stroke-width:0.264583px;stroke-linecap:butt;stroke-linejoin:miter;stroke-opacity:1">
        <path
           d="m 140.89827,75.528786 h 0.38099 v -10.5833 h -0.38099 z m -2.032,0 h 1.32291 v -10.5833 h -1.32291 z m 3.34432,-6.053648 c 0.29634,0 0.52917,-0.232832 0.52917,-0.529165 0,-0.296332 -0.23283,-0.529165 -0.52917,-0.529165 -0.28574,0 -0.52916,0.232833 -0.52916,0.529165 0,0.296333 0.24342,0.529165 0.52916,0.529165 z m 0,2.666992 c 0.29634,0 0.52917,-0.232833 0.52917,-0.529165 0,-0.285749 -0.23283,-0.529165 -0.52917,-0.529165 -0.28574,0 -0.52916,0.243416 -0.52916,0.529165 0,0.296332 0.24342,0.529165 0.52916,0.529165 z"
           style="font-style:normal;font-variant:normal;font-weight:normal;font-stretch:normal;font-size:10.5833px;font-family:Bravura;-inkscape-font-specification:'Bravura, Normal';font-variant-ligatures:normal;font-variant-caps:normal;font-variant-numeric:normal;font-variant-east-asian:normal;stroke-width:0.264583px"
           id="path1890" />
      </g>
      <g
         aria-label=" "
         transform="scale(-1,1)"
         id="text846-3"
         style="font-style:normal;font-variant:normal;font-weight:normal;font-stretch:normal;font-size:10.5833px;line-height:125%;font-family:Bravura;-inkscape-font-specification:'Bravura, Normal';font-variant-ligatures:normal;font-variant-caps:normal;font-variant-numeric:normal;font-variant-east-asian:normal;letter-spacing:0px;word-spacing:0px;fill:#000000;fill-opacity:1;stroke:none;stroke-width:0.264583px;stroke-linecap:butt;stroke-linejoin:miter;stroke-opacity:1">
        <path
           d="m -148.30909,75.528786 h 0.381 v -10.5833 h -0.381 z m -2.03199,0 h 1.32291 v -10.5833 h -1.32291 z m 3.34432,-6.053648 c 0.29634,0 0.52917,-0.232832 0.52917,-0.529165 0,-0.296332 -0.23283,-0.529165 -0.52917,-0.529165 -0.28575,0 -0.52916,0.232833 -0.52916,0.529165 0,0.296333 0.24341,0.529165 0.52916,0.529165 z m 0,2.666992 c 0.29634,0 0.52917,-0.232833 0.52917,-0.529165 0,-0.285749 -0.23283,-0.529165 -0.52917,-0.529165 -0.28575,0 -0.52916,0.243416 -0.52916,0.529165 0,0.296332 0.24341,0.529165 0.52916,0.529165 z"
           style="font-style:normal;font-variant:normal;font-weight:normal;font-stretch:normal;font-size:10.5833px;font-family:Bravura;-inkscape-font-specification:'Bravura, Normal';font-variant-ligatures:normal;font-variant-caps:normal;font-variant-numeric:normal;font-variant-east-asian:normal;stroke-width:0.264583px"
           id="path1893" />
      </g>
    </g>
  </g>
</svg>
