<?xml version="1.0" encoding="UTF-8" standalone="no"?>
<svg
   xmlns:dc="http://purl.org/dc/elements/1.1/"
   xmlns:cc="http://creativecommons.org/ns#"
   xmlns:rdf="http://www.w3.org/1999/02/22-rdf-syntax-ns#"
   xmlns:svg="http://www.w3.org/2000/svg"
   xmlns="http://www.w3.org/2000/svg"
   xmlns:sodipodi="http://sodipodi.sourceforge.net/DTD/sodipodi-0.dtd"
   xmlns:inkscape="http://www.inkscape.org/namespaces/inkscape"
   width="21mm"
   height="17mm"
   viewBox="0 0 21 17"
   version="1.1"
   id="svg8"
   inkscape:version="1.0.2 (e86c870879, 2021-01-15)"
   sodipodi:docname="swing-sixteenths.svg">
  <defs
     id="defs2" />
  <sodipodi:namedview
     id="base"
     pagecolor="#ffffff"
     bordercolor="#666666"
     borderopacity="1.0"
     inkscape:pageopacity="0.0"
     inkscape:pageshadow="2"
     inkscape:zoom="3.959798"
     inkscape:cx="49.5825"
     inkscape:cy="18.988392"
     inkscape:document-units="mm"
     inkscape:current-layer="layer1"
     inkscape:document-rotation="0"
     showgrid="false"
     fit-margin-top="0"
     fit-margin-left="0"
     fit-margin-right="0"
     fit-margin-bottom="0"
     inkscape:window-width="1920"
     inkscape:window-height="1056"
     inkscape:window-x="1920"
     inkscape:window-y="0"
     inkscape:window-maximized="1" />
  <metadata
     id="metadata5">
    <rdf:RDF>
      <cc:Work
         rdf:about="">
        <dc:format>image/svg+xml</dc:format>
        <dc:type
           rdf:resource="http://purl.org/dc/dcmitype/StillImage" />
        <dc:title></dc:title>
      </cc:Work>
    </rdf:RDF>
  </metadata>
  <g
     inkscape:label="Layer 1"
     inkscape:groupmode="layer"
     id="layer1"
     transform="translate(-126.15246,-58.879933)">
    <text
       xml:space="preserve"
       style="font-style:normal;font-weight:normal;font-size:10.5833px;line-height:125%;font-family:sans-serif;letter-spacing:0px;word-spacing:0px;fill:#000000;fill-opacity:1;stroke:none;stroke-width:0.264583px;stroke-linecap:butt;stroke-linejoin:miter;stroke-opacity:1"
       x="98.283035"
       y="90.848251"
       id="text18"><tspan
         sodipodi:role="line"
         id="tspan16"
         x="98.283035"
         y="90.848251"
         style="stroke-width:0.264583px" /></text>
    <g
       aria-label=" "
       transform="matrix(1.0325371,0,0,1.0325371,-3.1292511,-1.0207466)"
       id="text46"
       style="font-style:normal;font-weight:normal;font-size:10.5833px;line-height:125%;font-family:sans-serif;letter-spacing:0px;word-spacing:0px;fill:#000000;fill-opacity:1;stroke:none;stroke-width:0.264583px;stroke-linecap:butt;stroke-linejoin:miter;stroke-opacity:1" />
    <text
       xml:space="preserve"
       style="font-style:normal;font-weight:normal;font-size:10.5833px;line-height:125%;font-family:sans-serif;letter-spacing:0px;word-spacing:0px;fill:#000000;fill-opacity:1;stroke:none;stroke-width:0.264583px;stroke-linecap:butt;stroke-linejoin:miter;stroke-opacity:1"
       x="101.7394"
       y="86.318962"
       id="text18-3"><tspan
         sodipodi:role="line"
         id="tspan16-6"
         x="101.7394"
         y="86.318962"
         style="stroke-width:0.264583px" /></text>
    <g
       aria-label="î‡•"
       id="text34"
       style="font-style:normal;font-weight:normal;font-size:10.5833px;line-height:125%;font-family:sans-serif;letter-spacing:0px;word-spacing:0px;fill:#000000;fill-opacity:1;stroke:none;stroke-width:0.264583px;stroke-linecap:butt;stroke-linejoin:miter;stroke-opacity:1"
       transform="translate(-5.4528577,-23.739935)" />
    <g
       id="g187">
      <path
         d="m 130.10992,61.347673 h 2.73076 V 61.0773 h -2.99442 v 1.989175 h 0.26366 z"
         style="font-style:normal;font-weight:normal;font-size:10.5833px;line-height:125%;font-family:sans-serif;letter-spacing:0px;word-spacing:0px;fill:#000000;fill-opacity:1;stroke:none;stroke-width:0.238389px;stroke-linecap:butt;stroke-linejoin:miter;stroke-opacity:1"
         id="path103" />
      <path
         d="m 137.34992,59.879933 c -0.46141,0 -0.79098,0.212436 -0.79098,0.550403 0,0.173811 0.13183,0.299341 0.29191,0.299341 0.18832,0 0.30132,-0.144842 0.30132,-0.32831 l -0.0283,-0.06759 c 0,-0.135187 0.0659,-0.241406 0.20717,-0.241406 h 0.0565 c 0.113,0.03862 0.1695,0.1545 0.1695,0.289686 0,0.434529 -0.36724,0.598684 -0.53674,0.598684 -0.10358,0 -0.19774,-0.0097 -0.28249,-0.0097 -0.18833,0 -0.30133,0.02897 -0.30133,0.222091 0,0.241406 0.64032,-0.115873 0.64032,0.444185 0,0.589028 -0.4614,0.733871 -0.58382,0.733871 -0.19775,0 -0.26366,-0.08691 -0.26366,-0.106218 0,-0.05794 0.21658,-0.125531 0.21658,-0.347623 0,-0.164155 -0.13183,-0.299342 -0.29191,-0.299342 -0.17891,0 -0.32016,0.164156 -0.32016,0.40556 0,0.241405 0.16008,0.511778 0.79098,0.511778 0.80981,0 0.96989,-0.511778 0.96989,-0.772495 0,-0.318654 -0.16949,-0.40556 -0.16949,-0.434528 0,-0.02897 0.009,-0.05794 0.0659,-0.07725 0.4614,-0.222092 0.55557,-0.482809 0.55557,-0.724214 0,-0.251061 -0.24483,-0.646964 -0.69682,-0.646964 z"
         style="font-style:normal;font-weight:normal;font-size:10.5833px;line-height:125%;font-family:sans-serif;letter-spacing:0px;word-spacing:0px;fill:#000000;fill-opacity:1;stroke:none;stroke-width:0.238389px;stroke-linecap:butt;stroke-linejoin:miter;stroke-opacity:1"
         id="path105" />
      <path
         d="m 143.51221,61.249892 h -2.73077 v -0.270374 h 2.99443 v 1.989175 h -0.26366 z"
         style="font-style:normal;font-weight:normal;font-size:10.5833px;line-height:125%;font-family:sans-serif;letter-spacing:0px;word-spacing:0px;fill:#000000;fill-opacity:1;stroke:none;stroke-width:0.238389px;stroke-linecap:butt;stroke-linejoin:miter;stroke-opacity:1"
         id="path108" />
      <g
         id="g154">
        <g
           aria-label="î‡™"
           id="text177"
           style="font-style:normal;font-weight:normal;font-size:10.5833px;line-height:125%;font-family:sans-serif;letter-spacing:0px;word-spacing:0px;fill:#000000;fill-opacity:1;stroke:none;stroke-width:0.264583px;stroke-linecap:butt;stroke-linejoin:miter;stroke-opacity:1"
           transform="translate(-15.891952,-0.32335382)">
          <path
             d="m 148.53404,70.519394 c 0,-0.03175 -0.0106,-0.05292 -0.0106,-0.09525 0,-0.02117 0,-0.04233 0.0106,-0.07408 0.0317,-0.0635 0.26459,-0.698497 0.26459,-1.344079 0,-0.137583 -0.0106,-0.253999 -0.0318,-0.380999 -0.10584,-0.719664 -0.381,-1.015996 -1.143,-1.841494 -0.5715,-0.613831 -1.16416,-0.783164 -1.34408,-1.904994 -0.0212,-0.116416 -0.14817,-0.137583 -0.21167,-0.137583 -0.0635,0 -0.17991,0.01058 -0.17991,0.01058 v 7.979808 c -0.20108,-0.179916 -0.49742,-0.275166 -0.84667,-0.275166 -1.30174,0 -2.34949,0.96308 -2.34949,1.98966 0,0.624415 0.508,0.99483 1.15358,0.99483 1.05833,0 2.36008,-0.984246 2.36008,-1.98966 v -4.487319 c 0.58208,0.04233 1.23824,0.222249 1.87324,1.513412 0.24342,0.507998 0.33867,1.02658 0.33867,1.576912 0,0.306915 -0.0318,0.624414 -0.0847,0.941913 -0.0106,0.04233 -0.0106,0.0635 -0.0106,0.09525 0,0.137583 0.0847,0.275166 0.23283,0.275166 0.0741,0 0.14817,-0.04233 0.21167,-0.179916 0.0423,-0.05292 0.0741,-0.656165 0.0741,-1.164163 V 71.78939 c 0,-0.444499 -0.11642,-0.878414 -0.30692,-1.269996 z m -0.14816,-1.195913 c -0.0212,0.08467 -0.0212,0.1905 -0.0741,0.275166 -0.0106,0.03175 -0.0847,0.0635 -0.13758,0.0635 -0.0317,0 -0.0529,-0.01058 -0.0741,-0.04233 -0.16933,-0.264583 -0.34925,-0.476249 -0.5715,-0.730248 -0.49741,-0.571498 -0.98425,-0.825497 -1.2065,-1.693328 -0.0106,-0.01058 -0.0106,-0.02117 -0.0106,-0.03175 0,-0.04233 0.0635,-0.105833 0.14817,-0.105833 h 0.0847 c 0.64558,0 1.21708,0.592665 1.56633,1.111247 0.1905,0.275165 0.28575,0.603248 0.28575,0.941913 0,0.07408 0,0.137583 -0.0106,0.211666 z"
             style="stroke-width:0.264583px"
             id="path154" />
        </g>
        <g
           aria-label="î‡™"
           id="text177-3"
           style="font-style:normal;font-weight:normal;font-size:10.5833px;line-height:125%;font-family:sans-serif;letter-spacing:0px;word-spacing:0px;fill:#000000;fill-opacity:1;stroke:none;stroke-width:0.264583px;stroke-linecap:butt;stroke-linejoin:miter;stroke-opacity:1"
           transform="translate(-2.221757,-0.32335398)">
          <path
             d="m 148.53404,70.519394 c 0,-0.03175 -0.0106,-0.05292 -0.0106,-0.09525 0,-0.02117 0,-0.04233 0.0106,-0.07408 0.0317,-0.0635 0.26459,-0.698497 0.26459,-1.344079 0,-0.137583 -0.0106,-0.253999 -0.0318,-0.380999 -0.10584,-0.719664 -0.381,-1.015996 -1.143,-1.841494 -0.5715,-0.613831 -1.16416,-0.783164 -1.34408,-1.904994 -0.0212,-0.116416 -0.14817,-0.137583 -0.21167,-0.137583 -0.0635,0 -0.17991,0.01058 -0.17991,0.01058 v 7.979808 c -0.20108,-0.179916 -0.49742,-0.275166 -0.84667,-0.275166 -1.30174,0 -2.34949,0.96308 -2.34949,1.98966 0,0.624415 0.508,0.99483 1.15358,0.99483 1.05833,0 2.36008,-0.984246 2.36008,-1.98966 v -4.487319 c 0.58208,0.04233 1.23824,0.222249 1.87324,1.513412 0.24342,0.507998 0.33867,1.02658 0.33867,1.576912 0,0.306915 -0.0318,0.624414 -0.0847,0.941913 -0.0106,0.04233 -0.0106,0.0635 -0.0106,0.09525 0,0.137583 0.0847,0.275166 0.23283,0.275166 0.0741,0 0.14817,-0.04233 0.21167,-0.179916 0.0423,-0.05292 0.0741,-0.656165 0.0741,-1.164163 V 71.78939 c 0,-0.444499 -0.11642,-0.878414 -0.30692,-1.269996 z m -0.14816,-1.195913 c -0.0212,0.08467 -0.0212,0.1905 -0.0741,0.275166 -0.0106,0.03175 -0.0847,0.0635 -0.13758,0.0635 -0.0317,0 -0.0529,-0.01058 -0.0741,-0.04233 -0.16933,-0.264583 -0.34925,-0.476249 -0.5715,-0.730248 -0.49741,-0.571498 -0.98425,-0.825497 -1.2065,-1.693328 -0.0106,-0.01058 -0.0106,-0.02117 -0.0106,-0.03175 0,-0.04233 0.0635,-0.105833 0.14817,-0.105833 h 0.0847 c 0.64558,0 1.21708,0.592665 1.56633,1.111247 0.1905,0.275165 0.28575,0.603248 0.28575,0.941913 0,0.07408 0,0.137583 -0.0106,0.211666 z"
             style="stroke-width:0.264583px"
             id="path154-6" />
        </g>
      </g>
      <g
         aria-label="ð„¿"
         id="text137"
         style="font-style:normal;font-weight:normal;font-size:10.5833px;line-height:125%;font-family:sans-serif;letter-spacing:0px;word-spacing:0px;fill:#000000;fill-opacity:1;stroke:none;stroke-width:0.264583px;stroke-linecap:butt;stroke-linejoin:miter;stroke-opacity:1">
        <path
           d="m 137.32126,70.185454 c -0.0212,0 -0.0317,-0.01058 -0.0529,-0.02117 0.0423,-0.08467 0.0635,-0.179916 0.0635,-0.285749 0,-0.359832 -0.29633,-0.624415 -0.635,-0.624415 -0.3175,0 -0.62441,0.243416 -0.62441,0.624415 0,0.444499 0.45508,0.740831 0.8255,0.740831 0.21166,0 0.48683,-0.07408 0.81491,-0.243416 l -0.39158,1.418162 c -0.24342,0.264583 -0.42333,0.391582 -0.56092,0.391582 -0.0106,0 -0.0318,-0.01058 -0.0529,-0.02117 0.0529,-0.09525 0.0741,-0.1905 0.0741,-0.296333 0,-0.285749 -0.22225,-0.624414 -0.62441,-0.624414 -0.42334,0 -0.635,0.338665 -0.635,0.624414 0,0.444499 0.4445,0.751415 0.82549,0.751415 0.20109,0 0.47625,-0.08467 0.80434,-0.253999 l -0.762,2.751657 h 0.39158 l 1.57691,-5.651482 h -0.23283 c -0.127,0.22225 -0.53975,0.719665 -0.80433,0.719665 z"
           style="stroke-width:0.264583px"
           id="path174" />
      </g>
    </g>
  </g>
</svg>
