<?xml version="1.0" encoding="UTF-8" standalone="no"?>
<svg
   xmlns:dc="http://purl.org/dc/elements/1.1/"
   xmlns:cc="http://creativecommons.org/ns#"
   xmlns:rdf="http://www.w3.org/1999/02/22-rdf-syntax-ns#"
   xmlns:svg="http://www.w3.org/2000/svg"
   xmlns="http://www.w3.org/2000/svg"
   xmlns:sodipodi="http://sodipodi.sourceforge.net/DTD/sodipodi-0.dtd"
   xmlns:inkscape="http://www.inkscape.org/namespaces/inkscape"
   width="21mm"
   height="17mm"
   viewBox="0 0 21 17"
   version="1.1"
   id="svg8"
   inkscape:version="1.0.2 (e86c870879, 2021-01-15)"
   sodipodi:docname="swing.svg">
  <defs
     id="defs2" />
  <sodipodi:namedview
     id="base"
     pagecolor="#ffffff"
     bordercolor="#666666"
     borderopacity="1.0"
     inkscape:pageopacity="0.0"
     inkscape:pageshadow="2"
     inkscape:zoom="2.8"
     inkscape:cx="20.527274"
     inkscape:cy="9.3793319"
     inkscape:document-units="mm"
     inkscape:current-layer="layer1"
     inkscape:document-rotation="0"
     showgrid="false"
     fit-margin-top="0"
     fit-margin-left="0"
     fit-margin-right="0"
     fit-margin-bottom="0"
     inkscape:window-width="1920"
     inkscape:window-height="1024"
     inkscape:window-x="1920"
     inkscape:window-y="0"
     inkscape:window-maximized="1" />
  <metadata
     id="metadata5">
    <rdf:RDF>
      <cc:Work
         rdf:about="">
        <dc:format>image/svg+xml</dc:format>
        <dc:type
           rdf:resource="http://purl.org/dc/dcmitype/StillImage" />
        <dc:title></dc:title>
      </cc:Work>
    </rdf:RDF>
  </metadata>
  <g
     inkscape:label="Layer 1"
     inkscape:groupmode="layer"
     id="layer1"
     transform="translate(-126.15246,-58.879933)">
    <text
       xml:space="preserve"
       style="font-style:normal;font-weight:normal;font-size:10.5833px;line-height:125%;font-family:sans-serif;letter-spacing:0px;word-spacing:0px;fill:#000000;fill-opacity:1;stroke:none;stroke-width:0.264583px;stroke-linecap:butt;stroke-linejoin:miter;stroke-opacity:1"
       x="98.283035"
       y="90.848251"
       id="text18"><tspan
         sodipodi:role="line"
         id="tspan16"
         x="98.283035"
         y="90.848251"
         style="stroke-width:0.264583px" /></text>
    <g
       aria-label=" "
       transform="matrix(1.0325371,0,0,1.0325371,-3.1292511,-1.0207466)"
       id="text46"
       style="font-style:normal;font-weight:normal;font-size:10.5833px;line-height:125%;font-family:sans-serif;letter-spacing:0px;word-spacing:0px;fill:#000000;fill-opacity:1;stroke:none;stroke-width:0.264583px;stroke-linecap:butt;stroke-linejoin:miter;stroke-opacity:1" />
    <g
       id="g1462"
       transform="matrix(0.98939078,0,0,1.0145835,1.3790487,-0.49478447)">
      <g
         id="g1611"
         transform="matrix(0.87094581,0,0,0.87094581,31.989601,7.9523053)">
        <path
           d="m 120.35187,72.25679 c 0,-0.404323 -0.32783,-0.732153 -0.73215,-0.732153 -0.40432,0 -0.73216,0.32783 -0.73216,0.732153 0,0.22948 0.13114,0.426178 0.29505,0.55731 0.17484,0.120204 0.38247,0.18577 0.5901,0.18577 0.15298,0 0.30597,-0.03278 0.42618,-0.07649 0.15298,-0.04371 0.25133,-0.08742 0.39339,-0.163914 0.0219,-0.01092 0.0437,-0.01092 0.0546,-0.01092 0.0437,0 0.0546,0.04371 0.0546,0.09835 0,0.03278 0,0.07649 -0.0109,0.120205 -0.0328,0.163914 -0.81958,2.338517 -1.01627,3.059741 0,0.131132 0.25133,0.142059 0.31689,0.142059 0.12021,0 0.2732,-0.02186 0.38247,-0.109276 0.0328,-0.02186 1.10369,-3.85746 1.10369,-3.85746 0.0437,-0.196698 0.0983,-0.371541 0.10929,-0.426178 0,-0.109277 -0.10929,-0.163916 -0.13113,-0.174843 -0.0219,0 -0.0546,0 -0.12021,0.04371 -0.0765,0.06557 -0.62288,0.721225 -0.98349,0.721225 z"
           style="font-style:normal;font-weight:normal;font-size:10.5833px;line-height:125%;font-family:sans-serif;letter-spacing:0px;word-spacing:0px;fill:#000000;fill-opacity:1;stroke:none;stroke-width:0.273192px;stroke-linecap:butt;stroke-linejoin:miter;stroke-opacity:1"
           id="path98" />
        <g
           id="g1599"
           transform="translate(-17.898913,-0.58116732)">
          <path
             d="m 132.05622,68.751026 c -0.55732,-0.863284 -1.01628,-1.759351 -1.19112,-2.808406 -0.0328,-0.174842 -0.12021,-0.240407 -0.32783,-0.240407 -0.0546,0 -0.0984,0.02186 -0.10928,0.09835 v 8.152027 c -0.20763,-0.18577 -0.5136,-0.284119 -0.87421,-0.284119 -1.34411,0 -2.42594,0.994416 -2.42594,2.054398 0,0.644731 0.52453,1.027199 1.19112,1.027199 1.09276,0 2.43686,-1.016271 2.43686,-2.054398 v -6.130412 c 0.67752,0.415251 1.48616,1.617292 1.82491,2.415011 0.16392,0.37154 0.26227,0.994417 0.26227,1.639147 0,0.491745 -0.0765,1.005344 -0.26227,1.497088 -0.0219,0.06557 -0.0327,0.120205 -0.0327,0.163915 0,0.174843 0.10929,0.273191 0.17485,0.316902 l 0.0219,0.01092 c 0.0983,0.01092 0.22948,-0.03278 0.28413,-0.218553 0,0 0.28412,-1.038127 0.28412,-1.890484 0,-1.365956 -0.56825,-2.655419 -1.25668,-3.748184 z"
             style="font-style:normal;font-weight:normal;font-size:10.5833px;line-height:125%;font-family:sans-serif;letter-spacing:0px;word-spacing:0px;fill:#000000;fill-opacity:1;stroke:none;stroke-width:0.273192px;stroke-linecap:butt;stroke-linejoin:miter;stroke-opacity:1"
             id="path96" />
          <path
             d="m 147.92032,68.751026 c -0.55731,-0.863284 -1.01627,-1.759351 -1.19111,-2.808406 -0.0327,-0.174842 -0.12021,-0.240407 -0.32783,-0.240407 -0.0546,0 -0.0983,0.02186 -0.10928,0.09835 v 8.152027 c -0.20763,-0.18577 -0.5136,-0.284119 -0.87421,-0.284119 -1.3441,0 -2.42594,0.994416 -2.42594,2.054398 0,0.644731 0.52453,1.027199 1.19111,1.027199 1.09277,0 2.43687,-1.016271 2.43687,-2.054398 v -6.130412 c 0.67751,0.415251 1.48616,1.617292 1.82492,2.415011 0.16392,0.37154 0.26227,0.994417 0.26227,1.639147 0,0.491745 -0.0765,1.005344 -0.26227,1.497088 -0.0219,0.06557 -0.0327,0.120205 -0.0327,0.163915 0,0.174843 0.10927,0.273191 0.17484,0.316902 l 0.0219,0.01092 c 0.0983,0.01092 0.22948,-0.03278 0.28411,-0.218553 0,0 0.28413,-1.038127 0.28413,-1.890484 0,-1.365956 -0.56824,-2.655419 -1.25668,-3.748184 z"
             style="font-style:normal;font-weight:normal;font-size:10.5833px;line-height:125%;font-family:sans-serif;letter-spacing:0px;word-spacing:0px;fill:#000000;fill-opacity:1;stroke:none;stroke-width:0.273192px;stroke-linecap:butt;stroke-linejoin:miter;stroke-opacity:1"
             id="path100" />
        </g>
        <g
           id="g70"
           transform="matrix(1.0325371,0,0,1.0325371,-21.028164,-1.6019139)">
          <g
             aria-label="  "
             id="text54"
             style="font-style:normal;font-weight:normal;font-size:10.5833px;line-height:125%;font-family:sans-serif;letter-spacing:0px;word-spacing:0px;fill:#000000;fill-opacity:1;stroke:none;stroke-width:0.264583px;stroke-linecap:butt;stroke-linejoin:miter;stroke-opacity:1">
            <path
               d="m 129.4764,60.488594 h 3.06916 v -0.296332 h -3.36549 v 2.18016 h 0.29633 z"
               style="stroke-width:0.264583px"
               id="path103" />
            <path
               d="m 137.61358,58.879933 c -0.51858,0 -0.88899,0.232832 -0.88899,0.603248 0,0.190499 0.14816,0.328082 0.32808,0.328082 0.21166,0 0.33866,-0.158749 0.33866,-0.359832 l -0.0318,-0.07408 c 0,-0.148166 0.0741,-0.264583 0.23284,-0.264583 h 0.0635 c 0.127,0.04233 0.1905,0.169333 0.1905,0.317499 0,0.476249 -0.41275,0.656165 -0.60325,0.656165 -0.11642,0 -0.22225,-0.01058 -0.3175,-0.01058 -0.21167,0 -0.33867,0.03175 -0.33867,0.243415 0,0.264583 0.71967,-0.126999 0.71967,0.486832 0,0.645582 -0.51858,0.804331 -0.65617,0.804331 -0.22225,0 -0.29633,-0.09525 -0.29633,-0.116416 0,-0.0635 0.24342,-0.137583 0.24342,-0.380999 0,-0.179916 -0.14817,-0.328082 -0.32809,-0.328082 -0.20108,0 -0.35983,0.179916 -0.35983,0.444498 0,0.264583 0.17992,0.560915 0.889,0.560915 0.91016,0 1.09008,-0.560915 1.09008,-0.846664 0,-0.349249 -0.1905,-0.444498 -0.1905,-0.476248 0,-0.03175 0.0106,-0.0635 0.0741,-0.08467 0.51858,-0.243416 0.62442,-0.529165 0.62442,-0.793747 0,-0.275166 -0.27517,-0.709081 -0.78317,-0.709081 z"
               style="stroke-width:0.264583px"
               id="path105" />
          </g>
        </g>
        <g
           aria-label=" "
           id="text54-8"
           style="font-style:normal;font-weight:normal;font-size:10.5833px;line-height:125%;font-family:sans-serif;letter-spacing:0px;word-spacing:0px;fill:#000000;fill-opacity:1;stroke:none;stroke-width:0.264583px;stroke-linecap:butt;stroke-linejoin:miter;stroke-opacity:1"
           transform="matrix(-1.0325371,0,0,1.0325371,261.45465,-2.1913575)">
          <path
             d="m 129.04177,60.952294 h 3.06916 v -0.296333 h -3.36549 v 2.18016 h 0.29633 z"
             style="stroke-width:0.264583px"
             id="path108" />
        </g>
      </g>
    </g>
    <text
       xml:space="preserve"
       style="font-style:normal;font-weight:normal;font-size:10.5833px;line-height:125%;font-family:sans-serif;letter-spacing:0px;word-spacing:0px;fill:#000000;fill-opacity:1;stroke:none;stroke-width:0.264583px;stroke-linecap:butt;stroke-linejoin:miter;stroke-opacity:1"
       x="101.7394"
       y="86.318962"
       id="text18-3"><tspan
         sodipodi:role="line"
         id="tspan16-6"
         x="101.7394"
         y="86.318962"
         style="stroke-width:0.264583px" /></text>
    <g
       aria-label=""
       id="text34"
       style="font-style:normal;font-weight:normal;font-size:10.5833px;line-height:125%;font-family:sans-serif;letter-spacing:0px;word-spacing:0px;fill:#000000;fill-opacity:1;stroke:none;stroke-width:0.264583px;stroke-linecap:butt;stroke-linejoin:miter;stroke-opacity:1"
       transform="translate(-5.4528577,-23.739935)" />
  </g>
</svg>
