<?xml version="1.0" encoding="UTF-8" standalone="no"?>
<svg
   xmlns:dc="http://purl.org/dc/elements/1.1/"
   xmlns:cc="http://creativecommons.org/ns#"
   xmlns:rdf="http://www.w3.org/1999/02/22-rdf-syntax-ns#"
   xmlns:svg="http://www.w3.org/2000/svg"
   xmlns="http://www.w3.org/2000/svg"
   xmlns:sodipodi="http://sodipodi.sourceforge.net/DTD/sodipodi-0.dtd"
   xmlns:inkscape="http://www.inkscape.org/namespaces/inkscape"
   width="24mm"
   height="18mm"
   viewBox="0 0 24 18"
   version="1.1"
   id="svg8"
   sodipodi:docname="eighth.svg"
   inkscape:version="1.0.2 (e86c870879, 2021-01-15)">
  <defs
     id="defs2" />
  <sodipodi:namedview
     id="base"
     pagecolor="#ffffff"
     bordercolor="#666666"
     borderopacity="1.0"
     inkscape:pageopacity="0.0"
     inkscape:pageshadow="2"
     inkscape:zoom="2.8"
     inkscape:cx="-85.277491"
     inkscape:cy="55.943401"
     inkscape:document-units="mm"
     inkscape:current-layer="layer1"
     inkscape:document-rotation="0"
     showgrid="false"
     fit-margin-top="0"
     fit-margin-left="0"
     fit-margin-right="0"
     fit-margin-bottom="0"
     inkscape:window-width="1920"
     inkscape:window-height="1024"
     inkscape:window-x="1920"
     inkscape:window-y="0"
     inkscape:window-maximized="1" />
  <metadata
     id="metadata5">
    <rdf:RDF>
      <cc:Work
         rdf:about="">
        <dc:format>image/svg+xml</dc:format>
        <dc:type
           rdf:resource="http://purl.org/dc/dcmitype/StillImage" />
        <dc:title />
      </cc:Work>
    </rdf:RDF>
  </metadata>
  <g
     inkscape:label="Layer 1"
     inkscape:groupmode="layer"
     id="layer1"
     transform="translate(-126.15246,-58.879933)">
    <g
       aria-label="  "
       id="text38"
       style="font-style:normal;font-weight:normal;font-size:10.5833px;line-height:125%;font-family:sans-serif;letter-spacing:0px;word-spacing:0px;fill:#000000;fill-opacity:1;stroke:none;stroke-width:0.264583px;stroke-linecap:butt;stroke-linejoin:miter;stroke-opacity:1">
      <path
         d="m 147.48189,67.613041 c -0.53975,-0.836081 -0.98425,-1.703911 -1.15358,-2.719908 -0.0317,-0.169333 -0.11642,-0.232833 -0.3175,-0.232833 -0.0529,0 -0.0952,0.02117 -0.10583,0.09525 v 7.895142 c -0.20109,-0.179917 -0.49742,-0.275166 -0.84667,-0.275166 -1.30174,0 -2.34949,0.96308 -2.34949,1.98966 0,0.624415 0.508,0.99483 1.15358,0.99483 1.05833,0 2.36008,-0.984247 2.36008,-1.98966 v -5.937231 c 0.65616,0.402165 1.43933,1.566328 1.76741,2.338909 0.15875,0.359832 0.254,0.96308 0.254,1.587495 0,0.476248 -0.0741,0.973664 -0.254,1.449912 -0.0212,0.0635 -0.0318,0.116416 -0.0318,0.15875 0,0.169332 0.10583,0.264582 0.16933,0.306915 l 0.0212,0.01058 c 0.0952,0.01058 0.22225,-0.03175 0.27516,-0.211665 0,0 0.27517,-1.005414 0.27517,-1.830911 0,-1.322913 -0.55033,-2.571742 -1.21708,-3.630072 z"
         style="stroke-width:0.264583px"
         id="path157" />
    </g>
  </g>
</svg>
