<?xml version="1.0" encoding="UTF-8" standalone="no"?>
<svg
   xmlns:dc="http://purl.org/dc/elements/1.1/"
   xmlns:cc="http://creativecommons.org/ns#"
   xmlns:rdf="http://www.w3.org/1999/02/22-rdf-syntax-ns#"
   xmlns:svg="http://www.w3.org/2000/svg"
   xmlns="http://www.w3.org/2000/svg"
   xmlns:sodipodi="http://sodipodi.sourceforge.net/DTD/sodipodi-0.dtd"
   xmlns:inkscape="http://www.inkscape.org/namespaces/inkscape"
   width="40mm"
   height="40mm"
   viewBox="0 0 40 40"
   version="1.1"
   id="svg8"
   inkscape:version="1.0.2 (e86c870879, 2021-01-15)"
   sodipodi:docname="mclick.svg"
   inkscape:export-filename="/home/nps/src/mclick/static/mclick.png"
   inkscape:export-xdpi="131.63"
   inkscape:export-ydpi="131.63">
  <defs
     id="defs2" />
  <sodipodi:namedview
     id="base"
     pagecolor="#ffffff"
     bordercolor="#666666"
     borderopacity="1.0"
     inkscape:pageopacity="0.0"
     inkscape:pageshadow="2"
     inkscape:zoom="1.979899"
     inkscape:cx="43.034992"
     inkscape:cy="138.3255"
     inkscape:document-units="mm"
     inkscape:current-layer="layer1"
     inkscape:document-rotation="0"
     showgrid="false"
     inkscape:window-width="1920"
     inkscape:window-height="1024"
     inkscape:window-x="1920"
     inkscape:window-y="0"
     inkscape:window-maximized="1"
     fit-margin-top="0"
     fit-margin-left="0"
     fit-margin-right="0"
     fit-margin-bottom="0" />
  <metadata
     id="metadata5">
    <rdf:RDF>
      <cc:Work
         rdf:about="">
        <dc:format>image/svg+xml</dc:format>
        <dc:type
           rdf:resource="http://purl.org/dc/dcmitype/StillImage" />
        <dc:title></dc:title>
      </cc:Work>
    </rdf:RDF>
  </metadata>
  <g
     inkscape:label="Layer 1"
     inkscape:groupmode="layer"
     id="layer1">
    <g
       id="g4244"
       transform="translate(-39.71101,-47.644234)">
      <path
         style="fill:#000000;fill-opacity:1;stroke:#000000;stroke-width:0.264583;stroke-opacity:1"
         d="m 57.23196,87.280577 c -7.5935,-1.243901 -13.399031,-6.270852 -15.801852,-13.682662 -0.497074,-1.533288 -0.587552,-2.404339 -0.586802,-5.649259 8.11e-4,-3.507145 0.06362,-4.015858 0.731669,-5.926444 2.101481,-6.010088 6.507322,-10.415029 12.508666,-12.506108 1.886289,-0.65725 2.451004,-0.729273 5.794152,-0.738983 3.162705,-0.0092 3.994236,0.07982 5.688542,0.608861 6.689759,2.088867 11.601939,7.152225 13.388139,13.800174 0.648174,2.412405 0.639953,7.467687 -0.01593,9.789583 -2.3626,8.36395 -9.374053,14.016308 -17.87013,14.406198 -1.382448,0.06344 -3.108855,0.01783 -3.836459,-0.10136 z m 7.259138,-0.712165 C 71.577467,84.812848 77.038541,79.30452 78.693785,72.242837 79.333003,69.515772 79.093002,64.727583 78.184224,62.076699 76.569282,57.36596 72.850198,53.05199 68.655557,51.023872 c -3.156262,-1.526061 -5.066348,-1.958901 -8.645472,-1.95913 -2.409999,-1.54e-4 -3.455345,0.125157 -5.027084,0.602623 -6.587032,2.001024 -11.233452,6.650912 -13.253638,13.263532 -0.773554,2.532056 -0.842823,7.156991 -0.146481,9.780259 0.796932,3.002214 2.342343,5.807093 4.432957,8.045704 2.837377,3.038234 5.612902,4.744868 9.278105,5.704985 2.495182,0.653627 6.788148,0.703369 9.197154,0.106567 z m -9.961073,-1.560584 c -5.076754,-1.599012 -9.411094,-5.90182 -11.289314,-11.207184 -0.739561,-2.089018 -0.807726,-2.568383 -0.813343,-5.719696 -0.005,-2.78875 0.100441,-3.775367 0.557084,-5.214158 1.757846,-5.538625 6.405142,-10.185921 11.943767,-11.943767 1.442169,-0.457715 2.418861,-0.561434 5.214158,-0.553713 3.061816,0.0085 3.671776,0.09018 5.55371,0.744113 5.823063,2.023388 10.08077,6.530182 11.673287,12.356207 0.640447,2.342994 0.643392,6.967408 0.0058,9.109234 -1.542611,5.182024 -4.824005,9.191633 -9.295302,11.358137 -1.723567,0.835131 -3.562435,1.469218 -4.270796,1.472679 -0.166126,7.93e-4 -0.373424,-0.282914 -0.460663,-0.630502 -0.08724,-0.347589 -0.58054,-1.002433 -1.096223,-1.455209 -1.685307,-1.479719 -4.278654,-0.921819 -5.252262,1.129909 -0.496085,1.045421 -0.737564,1.099581 -2.469908,0.55395 z m 3.369597,-2.290683 c 1.73176,-1.283404 4.5522,-0.584846 5.552105,1.375129 l 0.513527,1.006597 1.203716,-0.362265 c 4.709047,-1.417214 9.123403,-5.428001 11.051427,-10.041075 1.271259,-3.041679 1.614889,-7.423735 0.839978,-10.711613 -1.428594,-6.061392 -6.517921,-11.261114 -12.573531,-12.846272 -2.243169,-0.587187 -6.4451,-0.587362 -8.687536,-3.63e-4 -6.055189,1.585061 -10.763037,6.237737 -12.593329,12.445748 -0.648322,2.198986 -0.648648,6.567734 -6.62e-4,8.863542 1.622581,5.748787 5.687526,10.132208 11.173837,12.049275 l 1.773862,0.619837 0.539472,-0.951867 c 0.296709,-0.523529 0.83992,-1.174531 1.207134,-1.446673 z M 47.952524,69.887506 c -0.903288,-0.974664 -1.061347,-1.820753 -0.543144,-2.907438 0.471063,-0.987828 1.903196,-1.784278 2.730186,-1.518333 1.605729,0.516372 2.197602,1.26626 2.197602,2.784306 0,2.053102 -2.972009,3.165723 -4.384644,1.641465 z m 3.385107,-0.292554 c 0.25163,-0.25163 0.533863,-0.839278 0.627184,-1.305885 0.142632,-0.713159 0.04147,-0.976578 -0.634675,-1.652728 -1.018371,-1.018371 -2.184429,-1.076529 -3.10604,-0.154918 -0.96716,0.96716 -0.888005,2.277783 0.192476,3.186948 0.941976,0.79262 2.083714,0.763924 2.921055,-0.07342 z m 17.333695,0.328204 c -0.896276,-0.896278 -1.079087,-1.77427 -0.605454,-2.907836 0.743501,-1.779445 3.455109,-2.097637 4.484719,-0.526256 1.662999,2.538056 -1.752105,5.561252 -3.879265,3.434092 z m 3.443446,-0.533763 c 0.780545,-0.886989 0.752587,-1.742393 -0.08966,-2.743354 -0.885219,-1.052021 -2.207308,-1.120818 -3.163507,-0.164618 -0.921612,0.921611 -0.863454,2.08767 0.154916,3.10604 0.672553,0.67255 0.943518,0.777648 1.653646,0.641389 0.467114,-0.08963 1.117188,-0.467384 1.444609,-0.839457 z M 51.808001,63.157655 c -0.982373,-0.385461 -1.574994,-1.299431 -1.581616,-2.439248 -0.01182,-2.033963 2.359967,-3.27507 4.0911,-2.140788 1.608195,1.053729 1.305854,3.728272 -0.507088,4.485767 -1.059956,0.442878 -1.108161,0.445147 -2.002396,0.09427 z m 2.525569,-0.885514 c 0.9562,-0.956201 0.887403,-2.278289 -0.164619,-3.163507 -1.066773,-0.89763 -1.951291,-0.870759 -2.910469,0.08842 -0.959178,0.959178 -0.986049,1.843696 -0.08842,2.910469 0.885218,1.052022 2.207306,1.120819 3.163507,0.164619 z m 12.129205,0.924986 c -1.725419,-0.714741 -2.210456,-2.970994 -0.916792,-4.264657 1.939293,-1.939295 5.189173,-0.008 4.328983,2.572587 -0.42908,1.287236 -2.231636,2.181105 -3.412191,1.69207 z m 2.192364,-0.668294 c 2.096844,-1.468687 0.315785,-4.812445 -2.042949,-3.835426 -0.980082,0.405964 -1.649468,1.590464 -1.418611,2.510275 0.360842,1.437709 2.26186,2.165454 3.46156,1.325151 z M 58.81946,59.960427 c -1.791057,-1.012763 -1.660998,-3.714518 0.222037,-4.612476 1.108433,-0.528574 1.964362,-0.354279 2.911524,0.592883 2.041482,2.041482 -0.612094,5.445372 -3.133561,4.019593 z m 2.836921,-0.684225 c 0.837341,-0.837341 0.866037,-1.979079 0.07342,-2.921055 -0.909165,-1.080481 -2.219788,-1.159636 -3.186948,-0.192476 -0.921611,0.921611 -0.863453,2.087669 0.154918,3.10604 0.67615,0.676149 0.939569,0.777307 1.652728,0.634675 0.466607,-0.09332 1.054255,-0.375554 1.305885,-0.627184 z"
         id="path861" />
      <g
         id="g882"
         transform="rotate(17.68651,56.178407,150.23379)"
         style="fill:#000000;fill-opacity:1">
        <rect
           style="opacity:1;fill:#000000;fill-opacity:1;stroke:#000000;stroke-width:0.163158;stroke-miterlimit:4;stroke-dasharray:none;stroke-dashoffset:0;stroke-opacity:1"
           id="rect869"
           width="1.4125247"
           height="31.057842"
           x="39.331017"
           y="56.477562" />
        <rect
           style="opacity:1;fill:#000000;fill-opacity:1;stroke:#000000;stroke-width:0.0900394;stroke-miterlimit:4;stroke-dasharray:none;stroke-dashoffset:0;stroke-opacity:1"
           id="rect867"
           width="3.9835081"
           height="4.113256"
           x="38.045525"
           y="68.24662" />
      </g>
    </g>
  </g>
</svg>
